PathFileType	4	(X/Y/Z)	pose_F01_0-83.trc
DataRate	CameraRate	NumFrames	NumMarkers	Units	OrigDataRate	OrigDataStartFrame	OrigNumFrames
30	30	10	21	m	30	55	83
Frame#	Time	CHip			RHip			RKnee			RAnkle			RBigToe			RSmallToe			RHeel			LHip			LKnee			LAnkle			LBigToe			LSmallToe			LHeel			Neck			Nose			RShoulder			RElbow			RWrist			LShoulder			LElbow			LWrist			
		X1	Y1	Z1	X2	Y2	Z2	X3	Y3	Z3	X4	Y4	Z4	X5	Y5	Z5	X6	Y6	Z6	X7	Y7	Z7	X8	Y8	Z8	X9	Y9	Z9	X10	Y10	Z10	X11	Y11	Z11	X12	Y12	Z12	X13	Y13	Z13	X14	Y14	Z14	X15	Y15	Z15	X16	Y16	Z16	X17	Y17	Z17	X18	Y18	Z18	X19	Y19	Z19	X20	Y20	Z20	X21	Y21	Z21	
55	1.8333333333333333	-0.25750763230546225	1.820581557994044	-0.7025844026063507	-0.2676796035295882	1.820273537674189	-0.6300038276922322	-0.2527965491659693	1.6739183738579753	-0.4113090556152132													-0.24620499797064688	1.8222470116946559	-0.7519889800478696	-0.23187099092732527	1.6928725594294642	-0.6394091170467422				-0.35335769709935605	1.4831912087162533	-0.9785916171265376							-0.23240372923412028	1.9646381731454126	-0.7519805904765919	-0.2055775173682659	2.020190519342559	-0.7606674649826757	-0.24930132802537644	1.963660992543602	-0.6623389576030162	-0.25412532793429254	1.8887019706349346	-0.6135619420933824	-0.20670731643570206	1.850219523620868	-0.6499321973658007	-0.2168672849411764	1.9655191020207232	-0.844159722454758	-1.024249271166862	1.7897779043321718	-0.08303136762015088	-1.1197135366905604	1.833180947150398	0.09319198740845577
56	1.8666666666666667	-0.25946725961494904	1.8199920592555305	-0.7019572795214184	-0.269697298547638	1.8181823078141899	-0.6361230110931042	-0.2527965491659693	1.6739183738579753	-0.4113090556152132													-0.24865791659133796	1.8206772294319296	-0.7542542072319277	-0.23187099092732527	1.6928725594294642	-0.6394091170467422				-0.35335769709935605	1.4831912087162533	-0.9785916171265376							-0.23291483265149884	1.9602423332412278	-0.7626606848707623	-0.20505058392622103	2.0160888796118983	-0.7684504918499869	-0.24917651212140401	1.9606695575153068	-0.6704408314903526	-0.2560400519463074	1.8849465957783333	-0.6197747388490739	-0.19933709545053815	1.8627074302539985	-0.6662967574482503	-0.21623568964211812	1.9619767111848072	-0.8520564013644949	-1.0073536560704992	1.786772058897507	-0.10519928528760247	-1.1196914190026237	1.8343567679041546	0.09421760631643349
57	1.9	-0.2614268869244359	1.8194025605170168	-0.7013301564364862	-0.27171499356568785	1.816091077954191	-0.6422421944939763	-0.2527965491659693	1.6739183738579753	-0.4113090556152132													-0.2511108352120291	1.8191074471692035	-0.7565194344159858	-0.23187099092732527	1.6928725594294642	-0.6394091170467422				-0.35335769709935605	1.4831912087162533	-0.9785916171265376							-0.2335763459726431	1.9594419502121656	-0.7656617749755446	-0.20319026356389544	2.0094254452317672	-0.7811073098468073	-0.25006279812954707	1.9580345632797393	-0.6734443438230154	-0.24867448556322802	1.8642838249046116	-0.625276901886107	-0.19634913376864835	1.8980501104117784	-0.6917197181581536	-0.21454365342089465	1.9596832206862278	-0.8568913486840811	-1.0130530468270649	1.7845553761469877	-0.09376671061174467	-1.1122994206006418	1.8370959835206908	0.07868813833032617
58	1.9333333333333333	-0.2633865142339227	1.8188130617785032	-0.7007030333515539	-0.27289745107713564	1.8178621666080985	-0.6372144948674018	-0.2527965491659693	1.6739183738579753	-0.4113090556152132													-0.2535637538327202	1.8175376649064774	-0.7587846616000439	-0.23187099092732527	1.6928725594294642	-0.6394091170467422				-0.35335769709935605	1.4831912087162533	-0.9785916171265376							-0.232491303409954	1.9594376108968974	-0.7710370959300694	-0.2027164839378488	2.0043682798568008	-0.788930970552159	-0.24943239671801964	1.962984266864041	-0.682126495534839	-0.24490414617698228	1.8839376196034945	-0.6220076242102383	-1.310246961006216	1.8426533620095167	0.41423988106484144	-0.21732504427783345	1.9544173692643874	-0.8546444788871124	-1.0099278659522242	1.7868068199976075	-0.08789949040938341	-1.134097256534535	1.8380756231829236	0.1146723104101996
59	1.9666666666666666	-0.26560947575002103	1.8190664965970273	-0.698276890132391	-0.27505711637965324	1.8175994100546062	-0.6348525078739882	-0.2527965491659693	1.6739183738579753	-0.4113090556152132													-0.25502535181479974	1.8174324062161025	-0.7534488312077375	-0.23187099092732527	1.6928725594294642	-0.6394091170467422				-0.35335769709935605	1.4831912087162533	-0.9785916171265376							-0.23216414912246597	1.9554181464270308	-0.7792341477808683	-0.19685989877094867	2.0009844883539016	-0.7987414473469161	-0.24605871627528383	1.9605172697676514	-0.6979837947444196	-0.23737851035618163	1.8880710691747353	-0.6346907642560831	-0.2091964503869625	1.948206115545663	-0.7269996491168811	-0.21622870805425273	1.9465533137303683	-0.8594567030245838	-1.0282086087700202	1.7796664924388652	-0.050839445369008675	-1.117139261220383	1.8393867784810904	0.08336907320801502
60	2.0	-0.26559078622855864	1.8157977971276111	-0.6980760645534559	-0.27607149578271495	1.8157160915342818	-0.6376988398516844	-0.2527965491659693	1.6739183738579753	-0.4113090556152132													-0.2529920046110633	1.8121480540436588	-0.7551568637260069	-0.23187099092732527	1.6928725594294642	-0.6394091170467422				-0.35335769709935605	1.4831912087162533	-0.9785916171265376							-0.232162812354079	1.9475856940477425	-0.7893773447473521	-0.19777790577541057	1.996904288853237	-0.8120275463682212	-0.24633050218341973	1.9577389422659868	-0.7090503191915716	-0.2434981387738868	1.8846463186954059	-0.6364129101922116	-0.21811233379030034	1.9547496103000872	-0.7496123599251386	-0.2155289362537716	1.938445091888677	-0.8666584217904983	-1.0151389553533938	1.774306664863459	-0.07033988942436824	-1.1047074851150975	1.8427270955333082	0.06079383512980837
61	2.033333333333333	-0.2668421109025386	1.8154624010767952	-0.6927490511544745	-0.27760534509885376	1.815959592149443	-0.6340076175605587	-0.2527965491659693	1.6739183738579753	-0.4113090556152132													-0.25302554957939905	1.8129421220976496	-0.7554785322154993	-0.23187099092732527	1.6928725594294642	-0.6394091170467422				-0.35335769709935605	1.4831912087162533	-0.9785916171265376							-1.1866604575710644	1.842757825054079	0.15027083082886158	-0.19793854081979992	1.9900517415595713	-0.8226854092290897	-0.24510350416583718	1.9556808863797335	-0.7142252103236638	-0.2433868096088482	1.88568216517661	-0.6365122659164518	-1.2562277871455487	1.8381506535781371	0.31837001523743264	-1.0599669578704027	1.8310228921607676	-0.058506739093067785	-0.9987681143745509	1.7683861936974328	-0.09277131963906074	-1.0724767645795432	1.8299123343164985	0.012084828508067191
62	2.066666666666667	-0.26809343557651866	1.8151270050259793	-0.6874220377554932	-0.2791391944149926	1.816203092764604	-0.6303163952694328	-0.2527965491659693	1.6739183738579753	-0.4113090556152132													-0.25305909454773473	1.8137361901516404	-0.7558002007049918	-0.23187099092732527	1.6928725594294642	-0.6394091170467422				-0.35335769709935605	1.4831912087162533	-0.9785916171265376							-1.1690184590224415	1.837678378319766	0.12248043673241743	-0.19531004406246977	1.9825426367678995	-0.8328895920640269	-1.2986993240845874	1.8492880991581064	0.3424208767721575	-0.24311434852625038	1.8922625779270341	-0.6370430184795041	-1.2717416840036169	1.8338607134367078	0.3492367071468222	-1.0404251954049106	1.8253008351937208	-0.08806609986725038	-0.19692288068673836	1.8562823743834724	-0.859999948816688	-1.0734714293308278	1.8281513737862476	0.014237875216502067
63	2.1	-0.2681262397703239	1.8141999292813464	-0.6873016204697913	-0.2782966050433802	1.8154443054152656	-0.6272167730590277	-0.2527965491659693	1.6739183738579753	-0.4113090556152132													-0.2530926395160705	1.8145302582056313	-0.7561218691944841	-0.23187099092732527	1.6928725594294642	-0.6394091170467422				-0.35335769709935605	1.4831912087162533	-0.9785916171265376							-1.1610933822985	1.8361743490428828	0.11049747537055368	-0.19150392473669667	1.979827451112779	-0.8512504818645654	-0.24196742338418828	1.9524121309800508	-0.7327130594819211	-0.24756808958003781	1.8881802067895588	-0.6321501898596402	-1.261745762591422	1.8334884704274566	0.32998452631895525	-1.0325398114858362	1.8205532293768971	-0.10082470436146103	-0.19856244092305156	1.8501967076510386	-0.8655331800575254	-1.0483537815058015	1.8228879303377297	-0.029856449805058412
64	2.1333333333333333	-0.27140009581368413	1.808654719071006	-0.6875551417153375	-0.28385798164307724	1.8096269694539777	-0.6251948354595211	-0.2527965491659693	1.6739183738579753	-0.4113090556152132													-0.25312618448440616	1.8153243262596221	-0.7564435376839765	-0.23187099092732527	1.6928725594294642	-0.6394091170467422				-0.35335769709935605	1.4831912087162533	-0.9785916171265376							-1.14736243581666	1.8301434097224438	0.09092215789069032	-0.19107772445551335	1.9684276209578409	-0.858546370164185	-0.24042297998788825	1.94227804568688	-0.7341894706606639	-0.23892749301034488	1.8692257438533328	-0.6368362261840248	-0.19400352581969899	1.9039623870756597	-0.7471877961539167	-1.0232362572385174	1.812153663067455	-0.11430394279252888	-0.20202633268913608	1.842275265535993	-0.8656005282575228	-1.0383277500696833	1.80763005897029	-0.04145789507382013
